Ronal Barbaren (2011) 1080P mkv X264 AC3+DTS MultiSubs
.
[IMG]http://img862.imageshack.us/img862/6405/ronalderbarbarbluray3db.jpg[/IMG]
.
Denemarken
Animatie / Komedie

geregisseerd door Kresten Vestbjerg Andersen, Thorbj°rn Christoffersen en Philip Einstein Lipski
met de stemmen van Anders Juul, Lars Mikkelsen en Brigitte Nielsen

Het verhaal draait om Ronal, een jonge barbaar met een laag zelfbeeld. Precies het tegenovergestelde van al die gespierde mannen in zijn dorp. Hij is een watje, maar het lot zorgt ervoor dat hij de enige is die zijn dorp van de ondergang kan redden wanneer de gemene Lord Volcazar alle barbaren ontvoert. Als enige overblijver zit er voor Ronal niets anders op dan een gevaarlijke tocht te ondernemen om zijn clan te bevrijden. Onderweg ontmoet hij ook nog Alibert, een slijmerige bard, Zandra, een bloedmooie strijdster en Elric, een metroseksuele elfengids.
. 
http://www.moviemeter.nl/film/71498
.
PLOT
.
Babes, nosser og muskler i 3D for hele familien (Babes, balls and muscles in 3D for the whole family)
. 
http://www.imdb.com/title/tt1629374/
.
INFO
.
Format                           : Matroska
Format version                   : Version 2
File size                        : 4.77 GiB
Duration                         : 1h 29mn
Overall bit rate                 : 7 653 Kbps
Encoded date                     : UTC 2012-02-09 15:40:50
Writing application              : mkvmerge v5.2.0 ('I can't explain') built on Dec 18 2011 18:12:03
Writing library                  : libebml v1.2.3 + libmatroska v1.3.0

Video
ID                               : 1
Format                           : AVC
Format/Info                      : Advanced Video Codec
Format profile                   : High@L4.0
Format settings, CABAC           : Yes
Format settings, ReFrames        : 5 frames
Codec ID                         : V_MPEG4/ISO/AVC
Duration                         : 1h 29mn
Bit rate                         : 5 495 Kbps
Width                            : 1 920 pixels
Height                           : 808 pixels
Display aspect ratio             : 2.40:1
Frame rate                       : 23.976 fps
Color space                      : YUV
Chroma subsampling               : 4:2:0
Bit depth                        : 8 bits
Scan type                        : Progressive
Bits/(Pixel*Frame)               : 0.148
Stream size                      : 3.34 GiB (70%)
Writing library                  : x264 core 120 r2146 bcd41db
Encoding settings                : cabac=1 / ref=5 / deblock=1:0:0 / analyse=0x3:0x133 / me=umh / subme=7 / psy=1 / psy_rd=1.00:0.00 / mixed_ref=1 / me_range=16 / chroma_me=1 / trellis=1 / 8x8dct=1 / cqm=0 / deadzone=21,11 / fast_pskip=0 / chroma_qp_offset=-2 / threads=12 / sliced_threads=0 / nr=0 / decimate=1 / interlaced=0 / bluray_compat=0 / constrained_intra=0 / bframes=3 / b_pyramid=2 / b_adapt=2 / b_bias=0 / direct=3 / weightb=1 / open_gop=0 / weightp=2 / keyint=250 / keyint_min=23 / scenecut=40 / intra_refresh=0 / rc_lookahead=50 / rc=2pass / mbtree=1 / bitrate=5495 / ratetol=1.0 / qcomp=0.60 / qpmin=0 / qpmax=69 / qpstep=4 / cplxblur=20.0 / qblur=0.5 / ip_ratio=1.40 / aq=1:1.00
Language                         : English
Default                          : Yes
Forced                           : No

Audio #1
ID                               : 2
Format                           : DTS
Format/Info                      : Digital Theater Systems
Codec ID                         : A_DTS
Duration                         : 1h 29mn
Bit rate mode                    : Constant
Bit rate                         : 1 510 Kbps
Channel(s)                       : 6 channels
Channel positions                : Front: L C R, Side: L R, LFE
Sampling rate                    : 48.0 KHz
Bit depth                        : 24 bits
Compression mode                 : Lossy
Stream size                      : 964 MiB (20%)
Title                            : DTS
Language                         : Danish
Default                          : Yes
Forced                           : No

Audio #2
ID                               : 3
Format                           : AC-3
Format/Info                      : Audio Coding 3
Mode extension                   : CM (complete main)
Codec ID                         : A_AC3
Duration                         : 1h 29mn
Bit rate mode                    : Constant
Bit rate                         : 640 Kbps
Channel(s)                       : 6 channels
Channel positions                : Front: L C R, Side: L R, LFE
Sampling rate                    : 48.0 KHz
Bit depth                        : 16 bits
Compression mode                 : Lossy
Stream size                      : 409 MiB (8%)
Title                            : AC3
Language                         : Danish
Default                          : No
Forced                           : No

Text #1
ID                               : 4
Format                           : UTF-8
Codec ID                         : S_TEXT/UTF8
Codec ID/Info                    : UTF-8 Plain Text
Language                         : Dutch
Default                          : Yes
Forced                           : No

Text #2
ID                               : 5
Format                           : UTF-8
Codec ID                         : S_TEXT/UTF8
Codec ID/Info                    : UTF-8 Plain Text
Language                         : English
Default                          : No
Forced                           : No

Text #3
ID                               : 6
Format                           : VobSub
Muxing mode                      : zlib
Codec ID                         : S_VOBSUB
Codec ID/Info                    : The same subtitle format used on DVDs
Language                         : Danish
Default                          : No
Forced                           : No

Text #4
ID                               : 7
Format                           : VobSub
Muxing mode                      : zlib
Codec ID                         : S_VOBSUB
Codec ID/Info                    : The same subtitle format used on DVDs
Language                         : Norwegian
Default                          : No
Forced                           : No

Menu
00:00:00.000                     : en:00:00:00.000
00:09:15.972                     : en:00:09:15.972
00:15:16.791                     : en:00:15:16.791
00:24:42.856                     : en:00:24:42.856
00:31:34.309                     : en:00:31:34.309
00:38:47.158                     : en:00:38:47.158
00:47:34.351                     : en:00:47:34.351
00:56:31.430                     : en:00:56:31.430
01:02:02.427                     : en:01:02:02.427
01:08:37.905                     : en:01:08:37.905
01:16:10.900                     : en:01:16:10.900
01:24:47.416                     : en:01:24:47.416
.
Enjoy
